<svg version="1.1" id="bag-Page_x25_201" xmlns="http://www.w3.org/2000/svg" x="0" y="0" viewBox="0 0 500 550" xml:space="preserve"><style/><path d="M429.7 156.9l31.2 312.5c0 13-4.6 24.1-13.7 33.2-9.1 9.1-20.2 13.7-33.2 13.7H85.9c-13 0-24.1-4.6-33.2-13.7-9.1-9.1-13.7-20.2-13.7-33.2l31.2-312.5c0-13 4.5-24.1 13.7-33.2 9.1-9.1 20.2-13.7 33.2-13.7H164v-7.8c0-23.8 8.4-44 25.1-60.8 16.8-16.8 37-25.2 60.8-25.2 23.8 0 44 8.4 60.8 25.2 16.8 16.8 25.2 37 25.2 60.8v7.8h46.9c13 0 24.1 4.6 33.2 13.7 9.1 9.1 13.7 20.2 13.7 33.2zm-242.2-54.7v7.8h125v-7.8c0-17.2-6.1-32-18.3-44.2-12.2-12.2-27-18.3-44.2-18.3s-32 6.1-44.2 18.3c-12.2 12.2-18.3 26.9-18.3 44.2zM414.1 485c4.2 0 7.9-1.5 11-4.6 3.1-3.1 4.6-6.8 4.6-11l-31.2-312.5c0-4.2-1.5-7.9-4.6-11-3.1-3.1-6.8-4.6-11-4.6H336v24.2c4.6 2 8.3 5.1 11.2 9.5 2.9 4.4 4.4 9.4 4.4 14.9 0 7.5-2.7 13.9-8.1 19.3s-11.8 8-19.3 8-13.9-2.7-19.3-8-8-11.8-8-19.3c0-5.5 1.5-10.5 4.4-14.9 2.9-4.4 6.7-7.6 11.2-9.5v-24.2h-125v24.2c4.6 2 8.3 5.1 11.2 9.5 2.9 4.4 4.4 9.4 4.4 14.9 0 7.5-2.7 13.9-8.1 19.3s-11.8 8-19.3 8-13.9-2.7-19.3-8-8-11.8-8-19.3c0-5.5 1.5-10.5 4.4-14.9 2.9-4.4 6.7-7.6 11.2-9.5v-24.2h-46.9c-4.2 0-7.9 1.5-11 4.6-3.1 3.1-4.6 6.8-4.6 11L70.3 469.4c0 4.2 1.5 7.9 4.6 11 3.1 3.1 6.8 4.6 11 4.6h328.2z" fill="#e60a13"/></svg>