<?xml version="1.0" encoding="utf-8"?>
<!-- Generator: Adobe Illustrator 21.0.0, SVG Export Plug-In . SVG Version: 6.00 Build 0)  -->
<svg version="1.1" id="bag-Page_x25_201" xmlns="http://www.w3.org/2000/svg" xmlns:xlink="http://www.w3.org/1999/xlink" x="0px"
	 y="0px" viewBox="0 0 500 550" style="enable-background:new 0 0 500 550;" xml:space="preserve">
<style type="text/css">
	.st0{fill:none;}
	.st1{fill:#E60A13;}
</style>
<path class="st0" d="z"/>
<path class="st1" d="M429.7,156.9l31.2,312.5c0,13-4.6,24.1-13.7,33.2c-9.1,9.1-20.2,13.7-33.2,13.7H85.9c-13,0-24.1-4.6-33.2-13.7
	c-9.1-9.1-13.7-20.2-13.7-33.2l31.2-312.5c0-13,4.5-24.1,13.7-33.2c9.1-9.1,20.2-13.7,33.2-13.7h46.9v-7.8c0-23.8,8.4-44,25.1-60.8
	c16.8-16.8,37-25.2,60.8-25.2c23.8,0,44,8.4,60.8,25.2c16.8,16.8,25.2,37,25.2,60.8v7.8h46.9c13,0,24.1,4.6,33.2,13.7
	C425.1,132.8,429.7,143.9,429.7,156.9L429.7,156.9z M187.5,102.2v7.8h125v-7.8c0-17.2-6.1-32-18.3-44.2
	C282,45.8,267.2,39.7,250,39.7s-32,6.1-44.2,18.3C193.6,70.2,187.5,84.9,187.5,102.2L187.5,102.2z M414.1,485c4.2,0,7.9-1.5,11-4.6
	c3.1-3.1,4.6-6.8,4.6-11l-31.2-312.5c0-4.2-1.5-7.9-4.6-11c-3.1-3.1-6.8-4.6-11-4.6h-46.9v24.2c4.6,2,8.3,5.1,11.2,9.5
	c2.9,4.4,4.4,9.4,4.4,14.9c0,7.5-2.7,13.9-8.1,19.3s-11.8,8-19.3,8c-7.5,0-13.9-2.7-19.3-8s-8-11.8-8-19.3c0-5.5,1.5-10.5,4.4-14.9
	c2.9-4.4,6.7-7.6,11.2-9.5v-24.2h-125v24.2c4.6,2,8.3,5.1,11.2,9.5c2.9,4.4,4.4,9.4,4.4,14.9c0,7.5-2.7,13.9-8.1,19.3
	s-11.8,8-19.3,8c-7.5,0-13.9-2.7-19.3-8s-8-11.8-8-19.3c0-5.5,1.5-10.5,4.4-14.9c2.9-4.4,6.7-7.6,11.2-9.5v-24.2h-46.9
	c-4.2,0-7.9,1.5-11,4.6c-3.1,3.1-4.6,6.8-4.6,11L70.3,469.4c0,4.2,1.5,7.9,4.6,11c3.1,3.1,6.8,4.6,11,4.6H414.1L414.1,485z"/>
<path class="st0" d="z"/>
</svg>
